<mxfile host="Electron" modified="2024-05-11T13:08:40.514Z" agent="Mozilla/5.0 (Windows NT 10.0; Win64; x64) AppleWebKit/537.36 (KHTML, like Gecko) draw.io/24.2.5 Chrome/120.0.6099.109 Electron/28.1.0 Safari/537.36" etag="LOaYzkPKBGH2A__N0O3O" version="24.2.5" type="device">
  <diagram name="Page-1" id="NSe0r-uk9wWjGOTRie95">
    <mxGraphModel dx="1532" dy="828" grid="1" gridSize="10" guides="1" tooltips="1" connect="1" arrows="1" fold="1" page="1" pageScale="2" pageWidth="1000" pageHeight="700" math="0" shadow="0">
      <root>
        <mxCell id="0" />
        <mxCell id="1" parent="0" />
        <mxCell id="k-RHDvBSSKnSWE7sQ61J-137" value="" style="edgeStyle=orthogonalEdgeStyle;rounded=0;orthogonalLoop=1;jettySize=auto;html=1;strokeWidth=1;shadow=1;" parent="1" source="k-RHDvBSSKnSWE7sQ61J-138" target="k-RHDvBSSKnSWE7sQ61J-140" edge="1">
          <mxGeometry relative="1" as="geometry" />
        </mxCell>
        <mxCell id="k-RHDvBSSKnSWE7sQ61J-138" value="1" style="ellipse;whiteSpace=wrap;html=1;aspect=fixed;fillColor=#a20025;fontColor=#ffffff;strokeColor=#6F0000;strokeWidth=1;shadow=1;" parent="1" vertex="1">
          <mxGeometry x="480" y="600" width="40" height="40" as="geometry" />
        </mxCell>
        <mxCell id="k-RHDvBSSKnSWE7sQ61J-139" value="" style="edgeStyle=orthogonalEdgeStyle;rounded=0;orthogonalLoop=1;jettySize=auto;html=1;strokeWidth=1;shadow=1;" parent="1" source="k-RHDvBSSKnSWE7sQ61J-140" target="k-RHDvBSSKnSWE7sQ61J-142" edge="1">
          <mxGeometry relative="1" as="geometry" />
        </mxCell>
        <mxCell id="k-RHDvBSSKnSWE7sQ61J-140" value="2" style="ellipse;whiteSpace=wrap;html=1;aspect=fixed;strokeWidth=1;shadow=1;" parent="1" vertex="1">
          <mxGeometry x="560" y="600" width="40" height="40" as="geometry" />
        </mxCell>
        <mxCell id="k-RHDvBSSKnSWE7sQ61J-141" value="" style="edgeStyle=orthogonalEdgeStyle;rounded=0;orthogonalLoop=1;jettySize=auto;html=1;strokeWidth=1;shadow=1;" parent="1" source="k-RHDvBSSKnSWE7sQ61J-142" target="k-RHDvBSSKnSWE7sQ61J-144" edge="1">
          <mxGeometry relative="1" as="geometry" />
        </mxCell>
        <mxCell id="k-RHDvBSSKnSWE7sQ61J-142" value="3" style="ellipse;whiteSpace=wrap;html=1;aspect=fixed;strokeWidth=1;shadow=1;" parent="1" vertex="1">
          <mxGeometry x="640.0000000000001" y="600" width="40" height="40" as="geometry" />
        </mxCell>
        <mxCell id="k-RHDvBSSKnSWE7sQ61J-143" value="" style="edgeStyle=orthogonalEdgeStyle;rounded=0;orthogonalLoop=1;jettySize=auto;html=1;strokeWidth=1;shadow=1;" parent="1" source="k-RHDvBSSKnSWE7sQ61J-144" target="k-RHDvBSSKnSWE7sQ61J-146" edge="1">
          <mxGeometry relative="1" as="geometry" />
        </mxCell>
        <mxCell id="aRPm_8BDV5CuRt_E5lMA-65" style="edgeStyle=none;rounded=0;orthogonalLoop=1;jettySize=auto;html=1;exitX=0.5;exitY=0;exitDx=0;exitDy=0;entryX=0.5;entryY=1;entryDx=0;entryDy=0;" edge="1" parent="1" source="k-RHDvBSSKnSWE7sQ61J-144" target="aRPm_8BDV5CuRt_E5lMA-26">
          <mxGeometry relative="1" as="geometry" />
        </mxCell>
        <mxCell id="k-RHDvBSSKnSWE7sQ61J-144" value="4" style="ellipse;whiteSpace=wrap;html=1;aspect=fixed;strokeWidth=1;shadow=1;" parent="1" vertex="1">
          <mxGeometry x="720" y="600" width="40" height="40" as="geometry" />
        </mxCell>
        <mxCell id="k-RHDvBSSKnSWE7sQ61J-145" value="" style="edgeStyle=orthogonalEdgeStyle;rounded=0;orthogonalLoop=1;jettySize=auto;html=1;strokeWidth=1;shadow=1;" parent="1" source="k-RHDvBSSKnSWE7sQ61J-146" target="k-RHDvBSSKnSWE7sQ61J-148" edge="1">
          <mxGeometry relative="1" as="geometry" />
        </mxCell>
        <mxCell id="k-RHDvBSSKnSWE7sQ61J-146" value="11" style="ellipse;whiteSpace=wrap;html=1;aspect=fixed;strokeWidth=1;shadow=1;" parent="1" vertex="1">
          <mxGeometry x="720" y="680" width="40" height="40" as="geometry" />
        </mxCell>
        <mxCell id="k-RHDvBSSKnSWE7sQ61J-147" value="" style="edgeStyle=orthogonalEdgeStyle;rounded=0;orthogonalLoop=1;jettySize=auto;html=1;strokeWidth=1;shadow=1;" parent="1" source="k-RHDvBSSKnSWE7sQ61J-148" target="k-RHDvBSSKnSWE7sQ61J-150" edge="1">
          <mxGeometry relative="1" as="geometry" />
        </mxCell>
        <mxCell id="k-RHDvBSSKnSWE7sQ61J-148" value="12" style="ellipse;whiteSpace=wrap;html=1;aspect=fixed;strokeWidth=1;shadow=1;" parent="1" vertex="1">
          <mxGeometry x="720" y="760" width="40" height="40" as="geometry" />
        </mxCell>
        <mxCell id="aRPm_8BDV5CuRt_E5lMA-63" style="edgeStyle=none;rounded=0;orthogonalLoop=1;jettySize=auto;html=1;exitX=0.5;exitY=1;exitDx=0;exitDy=0;entryX=0.5;entryY=0;entryDx=0;entryDy=0;" edge="1" parent="1" source="k-RHDvBSSKnSWE7sQ61J-150" target="k-RHDvBSSKnSWE7sQ61J-152">
          <mxGeometry relative="1" as="geometry" />
        </mxCell>
        <mxCell id="k-RHDvBSSKnSWE7sQ61J-150" value="13" style="ellipse;whiteSpace=wrap;html=1;aspect=fixed;strokeWidth=1;shadow=1;" parent="1" vertex="1">
          <mxGeometry x="720" y="840" width="40" height="40" as="geometry" />
        </mxCell>
        <mxCell id="k-RHDvBSSKnSWE7sQ61J-151" value="" style="edgeStyle=orthogonalEdgeStyle;rounded=0;orthogonalLoop=1;jettySize=auto;html=1;strokeWidth=1;shadow=1;" parent="1" source="k-RHDvBSSKnSWE7sQ61J-152" target="k-RHDvBSSKnSWE7sQ61J-154" edge="1">
          <mxGeometry relative="1" as="geometry" />
        </mxCell>
        <mxCell id="k-RHDvBSSKnSWE7sQ61J-152" value="16" style="ellipse;whiteSpace=wrap;html=1;aspect=fixed;strokeWidth=1;shadow=1;" parent="1" vertex="1">
          <mxGeometry x="721.25" y="920" width="40" height="40" as="geometry" />
        </mxCell>
        <mxCell id="k-RHDvBSSKnSWE7sQ61J-153" value="" style="edgeStyle=orthogonalEdgeStyle;rounded=0;orthogonalLoop=1;jettySize=auto;html=1;strokeWidth=1;shadow=1;" parent="1" source="k-RHDvBSSKnSWE7sQ61J-154" target="k-RHDvBSSKnSWE7sQ61J-156" edge="1">
          <mxGeometry relative="1" as="geometry" />
        </mxCell>
        <mxCell id="k-RHDvBSSKnSWE7sQ61J-154" value="17" style="ellipse;whiteSpace=wrap;html=1;aspect=fixed;strokeWidth=1;shadow=1;" parent="1" vertex="1">
          <mxGeometry x="721.25" y="1000" width="40" height="40" as="geometry" />
        </mxCell>
        <mxCell id="k-RHDvBSSKnSWE7sQ61J-155" value="" style="edgeStyle=orthogonalEdgeStyle;rounded=0;orthogonalLoop=1;jettySize=auto;html=1;strokeWidth=1;shadow=1;" parent="1" source="k-RHDvBSSKnSWE7sQ61J-156" target="k-RHDvBSSKnSWE7sQ61J-158" edge="1">
          <mxGeometry relative="1" as="geometry" />
        </mxCell>
        <mxCell id="k-RHDvBSSKnSWE7sQ61J-156" value="18" style="ellipse;whiteSpace=wrap;html=1;aspect=fixed;strokeWidth=1;shadow=1;" parent="1" vertex="1">
          <mxGeometry x="801.25" y="1000" width="40" height="40" as="geometry" />
        </mxCell>
        <mxCell id="k-RHDvBSSKnSWE7sQ61J-157" value="" style="edgeStyle=orthogonalEdgeStyle;rounded=0;orthogonalLoop=1;jettySize=auto;html=1;strokeWidth=1;shadow=1;" parent="1" source="k-RHDvBSSKnSWE7sQ61J-158" target="k-RHDvBSSKnSWE7sQ61J-160" edge="1">
          <mxGeometry relative="1" as="geometry" />
        </mxCell>
        <mxCell id="k-RHDvBSSKnSWE7sQ61J-158" value="19" style="ellipse;whiteSpace=wrap;html=1;aspect=fixed;strokeWidth=1;shadow=1;" parent="1" vertex="1">
          <mxGeometry x="880" y="1000" width="40" height="40" as="geometry" />
        </mxCell>
        <mxCell id="k-RHDvBSSKnSWE7sQ61J-159" value="" style="edgeStyle=orthogonalEdgeStyle;rounded=0;orthogonalLoop=1;jettySize=auto;html=1;strokeWidth=1;shadow=1;" parent="1" source="k-RHDvBSSKnSWE7sQ61J-160" target="k-RHDvBSSKnSWE7sQ61J-163" edge="1">
          <mxGeometry relative="1" as="geometry" />
        </mxCell>
        <mxCell id="k-RHDvBSSKnSWE7sQ61J-160" value="20" style="ellipse;whiteSpace=wrap;html=1;aspect=fixed;strokeWidth=1;shadow=1;" parent="1" vertex="1">
          <mxGeometry x="999.38" y="1000" width="40" height="40" as="geometry" />
        </mxCell>
        <mxCell id="k-RHDvBSSKnSWE7sQ61J-161" value="" style="edgeStyle=orthogonalEdgeStyle;rounded=0;orthogonalLoop=1;jettySize=auto;html=1;strokeWidth=1;shadow=1;" parent="1" source="k-RHDvBSSKnSWE7sQ61J-163" target="k-RHDvBSSKnSWE7sQ61J-164" edge="1">
          <mxGeometry relative="1" as="geometry" />
        </mxCell>
        <mxCell id="k-RHDvBSSKnSWE7sQ61J-162" value="" style="edgeStyle=orthogonalEdgeStyle;rounded=0;orthogonalLoop=1;jettySize=auto;html=1;strokeWidth=1;shadow=1;" parent="1" source="k-RHDvBSSKnSWE7sQ61J-163" target="k-RHDvBSSKnSWE7sQ61J-166" edge="1">
          <mxGeometry relative="1" as="geometry" />
        </mxCell>
        <mxCell id="k-RHDvBSSKnSWE7sQ61J-163" value="21" style="ellipse;whiteSpace=wrap;html=1;aspect=fixed;strokeWidth=1;shadow=1;" parent="1" vertex="1">
          <mxGeometry x="1000.63" y="880" width="40" height="40" as="geometry" />
        </mxCell>
        <mxCell id="k-RHDvBSSKnSWE7sQ61J-164" value="29" style="ellipse;whiteSpace=wrap;html=1;aspect=fixed;strokeWidth=1;shadow=1;" parent="1" vertex="1">
          <mxGeometry x="880" y="880" width="40" height="40" as="geometry" />
        </mxCell>
        <mxCell id="k-RHDvBSSKnSWE7sQ61J-165" value="" style="edgeStyle=orthogonalEdgeStyle;rounded=0;orthogonalLoop=1;jettySize=auto;html=1;strokeWidth=1;shadow=1;" parent="1" source="k-RHDvBSSKnSWE7sQ61J-166" target="k-RHDvBSSKnSWE7sQ61J-168" edge="1">
          <mxGeometry relative="1" as="geometry" />
        </mxCell>
        <mxCell id="k-RHDvBSSKnSWE7sQ61J-166" value="22" style="ellipse;whiteSpace=wrap;html=1;aspect=fixed;strokeWidth=1;shadow=1;" parent="1" vertex="1">
          <mxGeometry x="1000.63" y="800" width="40" height="40" as="geometry" />
        </mxCell>
        <mxCell id="k-RHDvBSSKnSWE7sQ61J-167" value="" style="edgeStyle=orthogonalEdgeStyle;rounded=0;orthogonalLoop=1;jettySize=auto;html=1;strokeWidth=1;shadow=1;" parent="1" source="k-RHDvBSSKnSWE7sQ61J-168" target="k-RHDvBSSKnSWE7sQ61J-171" edge="1">
          <mxGeometry relative="1" as="geometry" />
        </mxCell>
        <mxCell id="k-RHDvBSSKnSWE7sQ61J-168" value="23" style="ellipse;whiteSpace=wrap;html=1;aspect=fixed;strokeWidth=1;shadow=1;" parent="1" vertex="1">
          <mxGeometry x="1000" y="720" width="40" height="40" as="geometry" />
        </mxCell>
        <mxCell id="k-RHDvBSSKnSWE7sQ61J-169" value="" style="edgeStyle=orthogonalEdgeStyle;rounded=0;orthogonalLoop=1;jettySize=auto;html=1;strokeWidth=1;shadow=1;" parent="1" source="k-RHDvBSSKnSWE7sQ61J-171" target="k-RHDvBSSKnSWE7sQ61J-173" edge="1">
          <mxGeometry relative="1" as="geometry" />
        </mxCell>
        <mxCell id="aRPm_8BDV5CuRt_E5lMA-8" value="" style="edgeStyle=none;rounded=0;orthogonalLoop=1;jettySize=auto;html=1;" edge="1" parent="1">
          <mxGeometry relative="1" as="geometry">
            <mxPoint x="1026.005" y="641.25" as="sourcePoint" />
            <mxPoint x="1026.0100000000002" y="600" as="targetPoint" />
          </mxGeometry>
        </mxCell>
        <mxCell id="k-RHDvBSSKnSWE7sQ61J-171" value="24" style="ellipse;whiteSpace=wrap;html=1;aspect=fixed;strokeWidth=1;shadow=1;" parent="1" vertex="1">
          <mxGeometry x="999.38" y="640" width="38.75" height="38.75" as="geometry" />
        </mxCell>
        <mxCell id="k-RHDvBSSKnSWE7sQ61J-172" value="" style="edgeStyle=orthogonalEdgeStyle;rounded=0;orthogonalLoop=1;jettySize=auto;html=1;strokeWidth=1;shadow=1;" parent="1" source="k-RHDvBSSKnSWE7sQ61J-173" target="k-RHDvBSSKnSWE7sQ61J-182" edge="1">
          <mxGeometry relative="1" as="geometry" />
        </mxCell>
        <mxCell id="k-RHDvBSSKnSWE7sQ61J-173" value="28" style="ellipse;whiteSpace=wrap;html=1;aspect=fixed;strokeWidth=1;shadow=1;" parent="1" vertex="1">
          <mxGeometry x="880" y="640" width="40" height="40" as="geometry" />
        </mxCell>
        <mxCell id="k-RHDvBSSKnSWE7sQ61J-174" value="" style="edgeStyle=orthogonalEdgeStyle;rounded=0;orthogonalLoop=1;jettySize=auto;html=1;strokeWidth=1;shadow=1;" parent="1" source="k-RHDvBSSKnSWE7sQ61J-175" target="k-RHDvBSSKnSWE7sQ61J-178" edge="1">
          <mxGeometry relative="1" as="geometry" />
        </mxCell>
        <mxCell id="aRPm_8BDV5CuRt_E5lMA-7" value="" style="edgeStyle=none;rounded=0;orthogonalLoop=1;jettySize=auto;html=1;" edge="1" parent="1">
          <mxGeometry relative="1" as="geometry">
            <mxPoint x="1016.0100000000001" y="600" as="sourcePoint" />
            <mxPoint x="1016.005" y="641.25" as="targetPoint" />
          </mxGeometry>
        </mxCell>
        <mxCell id="k-RHDvBSSKnSWE7sQ61J-175" value="25" style="ellipse;whiteSpace=wrap;html=1;aspect=fixed;strokeWidth=1;shadow=1;" parent="1" vertex="1">
          <mxGeometry x="1000.0000000000001" y="560" width="40" height="40" as="geometry" />
        </mxCell>
        <mxCell id="k-RHDvBSSKnSWE7sQ61J-177" value="" style="edgeStyle=orthogonalEdgeStyle;rounded=0;orthogonalLoop=1;jettySize=auto;html=1;strokeWidth=1;shadow=1;" parent="1" source="k-RHDvBSSKnSWE7sQ61J-178" target="k-RHDvBSSKnSWE7sQ61J-179" edge="1">
          <mxGeometry relative="1" as="geometry" />
        </mxCell>
        <mxCell id="k-RHDvBSSKnSWE7sQ61J-178" value="26" style="ellipse;whiteSpace=wrap;html=1;aspect=fixed;strokeWidth=1;shadow=1;" parent="1" vertex="1">
          <mxGeometry x="1000" y="480" width="40" height="40" as="geometry" />
        </mxCell>
        <mxCell id="k-RHDvBSSKnSWE7sQ61J-179" value="27" style="ellipse;whiteSpace=wrap;html=1;aspect=fixed;strokeWidth=1;shadow=1;" parent="1" vertex="1">
          <mxGeometry x="880" y="480" width="40" height="40" as="geometry" />
        </mxCell>
        <mxCell id="k-RHDvBSSKnSWE7sQ61J-181" value="" style="edgeStyle=orthogonalEdgeStyle;rounded=0;orthogonalLoop=1;jettySize=auto;html=1;strokeWidth=1;shadow=1;" parent="1" source="k-RHDvBSSKnSWE7sQ61J-182" target="k-RHDvBSSKnSWE7sQ61J-184" edge="1">
          <mxGeometry relative="1" as="geometry" />
        </mxCell>
        <mxCell id="k-RHDvBSSKnSWE7sQ61J-182" value="29" style="ellipse;whiteSpace=wrap;html=1;aspect=fixed;strokeWidth=1;shadow=1;" parent="1" vertex="1">
          <mxGeometry x="880" y="720" width="40" height="40" as="geometry" />
        </mxCell>
        <mxCell id="k-RHDvBSSKnSWE7sQ61J-183" value="" style="edgeStyle=orthogonalEdgeStyle;rounded=0;orthogonalLoop=1;jettySize=auto;html=1;strokeWidth=1;shadow=1;" parent="1" source="k-RHDvBSSKnSWE7sQ61J-184" edge="1">
          <mxGeometry relative="1" as="geometry">
            <mxPoint x="840" y="820" as="targetPoint" />
          </mxGeometry>
        </mxCell>
        <mxCell id="k-RHDvBSSKnSWE7sQ61J-184" value="30" style="ellipse;whiteSpace=wrap;html=1;aspect=fixed;strokeWidth=1;shadow=1;" parent="1" vertex="1">
          <mxGeometry x="880" y="800" width="40" height="40" as="geometry" />
        </mxCell>
        <mxCell id="k-RHDvBSSKnSWE7sQ61J-185" value="" style="edgeStyle=orthogonalEdgeStyle;rounded=0;orthogonalLoop=1;jettySize=auto;html=1;strokeWidth=1;shadow=1;" parent="1" source="k-RHDvBSSKnSWE7sQ61J-186" target="k-RHDvBSSKnSWE7sQ61J-188" edge="1">
          <mxGeometry relative="1" as="geometry" />
        </mxCell>
        <mxCell id="k-RHDvBSSKnSWE7sQ61J-186" value="31" style="ellipse;whiteSpace=wrap;html=1;aspect=fixed;strokeWidth=1;shadow=1;" parent="1" vertex="1">
          <mxGeometry x="800" y="800" width="40" height="40" as="geometry" />
        </mxCell>
        <mxCell id="aRPm_8BDV5CuRt_E5lMA-72" value="" style="edgeStyle=none;rounded=0;orthogonalLoop=1;jettySize=auto;html=1;" edge="1" parent="1" source="k-RHDvBSSKnSWE7sQ61J-188" target="aRPm_8BDV5CuRt_E5lMA-22">
          <mxGeometry relative="1" as="geometry" />
        </mxCell>
        <mxCell id="k-RHDvBSSKnSWE7sQ61J-188" value="32" style="ellipse;whiteSpace=wrap;html=1;aspect=fixed;strokeWidth=1;shadow=1;" parent="1" vertex="1">
          <mxGeometry x="800" y="720" width="40" height="40" as="geometry" />
        </mxCell>
        <mxCell id="k-RHDvBSSKnSWE7sQ61J-215" value="10" style="ellipse;whiteSpace=wrap;html=1;aspect=fixed;fillColor=#a20025;fontColor=#ffffff;strokeColor=#6F0000;strokeWidth=1;shadow=1;" parent="1" vertex="1">
          <mxGeometry x="640" y="482.5" width="40" height="40" as="geometry" />
        </mxCell>
        <mxCell id="k-RHDvBSSKnSWE7sQ61J-218" value="" style="endArrow=classic;html=1;rounded=0;exitX=0.5;exitY=0;exitDx=0;exitDy=0;entryX=0.5;entryY=1;entryDx=0;entryDy=0;strokeWidth=1;shadow=1;" parent="1" source="k-RHDvBSSKnSWE7sQ61J-164" target="k-RHDvBSSKnSWE7sQ61J-184" edge="1">
          <mxGeometry width="50" height="50" relative="1" as="geometry">
            <mxPoint x="870" y="1240" as="sourcePoint" />
            <mxPoint x="920" y="1190" as="targetPoint" />
          </mxGeometry>
        </mxCell>
        <mxCell id="uq4Sb5r7c7uuLDeRoh1s-4" value="" style="endArrow=classic;html=1;rounded=0;entryX=0;entryY=0;entryDx=0;entryDy=0;exitX=0.5;exitY=1;exitDx=0;exitDy=0;strokeWidth=1;shadow=1;" parent="1" source="k-RHDvBSSKnSWE7sQ61J-179" target="k-RHDvBSSKnSWE7sQ61J-171" edge="1">
          <mxGeometry width="50" height="50" relative="1" as="geometry">
            <mxPoint x="770" y="940" as="sourcePoint" />
            <mxPoint x="820" y="890" as="targetPoint" />
          </mxGeometry>
        </mxCell>
        <mxCell id="aRPm_8BDV5CuRt_E5lMA-25" value="" style="edgeStyle=none;rounded=0;orthogonalLoop=1;jettySize=auto;html=1;" edge="1" parent="1" source="aRPm_8BDV5CuRt_E5lMA-22" target="aRPm_8BDV5CuRt_E5lMA-24">
          <mxGeometry relative="1" as="geometry" />
        </mxCell>
        <mxCell id="aRPm_8BDV5CuRt_E5lMA-22" value="14" style="ellipse;whiteSpace=wrap;html=1;aspect=fixed;" vertex="1" parent="1">
          <mxGeometry x="800" y="640" width="40" height="40" as="geometry" />
        </mxCell>
        <mxCell id="aRPm_8BDV5CuRt_E5lMA-29" value="" style="edgeStyle=none;rounded=0;orthogonalLoop=1;jettySize=auto;html=1;" edge="1" parent="1" source="aRPm_8BDV5CuRt_E5lMA-24" target="aRPm_8BDV5CuRt_E5lMA-27">
          <mxGeometry relative="1" as="geometry" />
        </mxCell>
        <mxCell id="aRPm_8BDV5CuRt_E5lMA-24" value="15" style="ellipse;whiteSpace=wrap;html=1;aspect=fixed;" vertex="1" parent="1">
          <mxGeometry x="800" y="560" width="40" height="40" as="geometry" />
        </mxCell>
        <mxCell id="aRPm_8BDV5CuRt_E5lMA-66" value="" style="edgeStyle=none;rounded=0;orthogonalLoop=1;jettySize=auto;html=1;" edge="1" parent="1" source="aRPm_8BDV5CuRt_E5lMA-26" target="k-RHDvBSSKnSWE7sQ61J-215">
          <mxGeometry relative="1" as="geometry" />
        </mxCell>
        <mxCell id="aRPm_8BDV5CuRt_E5lMA-26" value="9" style="ellipse;whiteSpace=wrap;html=1;aspect=fixed;" vertex="1" parent="1">
          <mxGeometry x="720" y="480" width="40" height="40" as="geometry" />
        </mxCell>
        <mxCell id="aRPm_8BDV5CuRt_E5lMA-32" value="" style="edgeStyle=none;rounded=0;orthogonalLoop=1;jettySize=auto;html=1;" edge="1" parent="1" source="aRPm_8BDV5CuRt_E5lMA-27" target="aRPm_8BDV5CuRt_E5lMA-31">
          <mxGeometry relative="1" as="geometry" />
        </mxCell>
        <mxCell id="aRPm_8BDV5CuRt_E5lMA-27" value="5" style="ellipse;whiteSpace=wrap;html=1;aspect=fixed;" vertex="1" parent="1">
          <mxGeometry x="800" y="480" width="40" height="40" as="geometry" />
        </mxCell>
        <mxCell id="aRPm_8BDV5CuRt_E5lMA-39" value="" style="edgeStyle=none;rounded=0;orthogonalLoop=1;jettySize=auto;html=1;" edge="1" parent="1" source="aRPm_8BDV5CuRt_E5lMA-31" target="aRPm_8BDV5CuRt_E5lMA-33">
          <mxGeometry relative="1" as="geometry" />
        </mxCell>
        <mxCell id="aRPm_8BDV5CuRt_E5lMA-31" value="6" style="ellipse;whiteSpace=wrap;html=1;aspect=fixed;" vertex="1" parent="1">
          <mxGeometry x="800" y="400" width="40" height="40" as="geometry" />
        </mxCell>
        <mxCell id="aRPm_8BDV5CuRt_E5lMA-40" value="" style="edgeStyle=none;rounded=0;orthogonalLoop=1;jettySize=auto;html=1;" edge="1" parent="1" source="aRPm_8BDV5CuRt_E5lMA-33" target="aRPm_8BDV5CuRt_E5lMA-34">
          <mxGeometry relative="1" as="geometry" />
        </mxCell>
        <mxCell id="aRPm_8BDV5CuRt_E5lMA-33" value="36" style="ellipse;whiteSpace=wrap;html=1;aspect=fixed;" vertex="1" parent="1">
          <mxGeometry x="801.25" y="320" width="40" height="40" as="geometry" />
        </mxCell>
        <mxCell id="aRPm_8BDV5CuRt_E5lMA-41" value="" style="edgeStyle=none;rounded=0;orthogonalLoop=1;jettySize=auto;html=1;" edge="1" parent="1" source="aRPm_8BDV5CuRt_E5lMA-34" target="aRPm_8BDV5CuRt_E5lMA-38">
          <mxGeometry relative="1" as="geometry" />
        </mxCell>
        <mxCell id="aRPm_8BDV5CuRt_E5lMA-34" value="37" style="ellipse;whiteSpace=wrap;html=1;aspect=fixed;" vertex="1" parent="1">
          <mxGeometry x="800" y="240" width="40" height="40" as="geometry" />
        </mxCell>
        <mxCell id="aRPm_8BDV5CuRt_E5lMA-47" value="" style="edgeStyle=none;rounded=0;orthogonalLoop=1;jettySize=auto;html=1;" edge="1" parent="1" source="aRPm_8BDV5CuRt_E5lMA-38" target="aRPm_8BDV5CuRt_E5lMA-42">
          <mxGeometry relative="1" as="geometry" />
        </mxCell>
        <mxCell id="aRPm_8BDV5CuRt_E5lMA-38" value="33" style="ellipse;whiteSpace=wrap;html=1;aspect=fixed;" vertex="1" parent="1">
          <mxGeometry x="720" y="240" width="40" height="40" as="geometry" />
        </mxCell>
        <mxCell id="aRPm_8BDV5CuRt_E5lMA-71" style="edgeStyle=none;rounded=0;orthogonalLoop=1;jettySize=auto;html=1;entryX=1;entryY=0;entryDx=0;entryDy=0;" edge="1" parent="1" source="aRPm_8BDV5CuRt_E5lMA-42" target="aRPm_8BDV5CuRt_E5lMA-43">
          <mxGeometry relative="1" as="geometry" />
        </mxCell>
        <mxCell id="aRPm_8BDV5CuRt_E5lMA-42" value="34" style="ellipse;whiteSpace=wrap;html=1;aspect=fixed;" vertex="1" parent="1">
          <mxGeometry x="640" y="240" width="40" height="40" as="geometry" />
        </mxCell>
        <mxCell id="aRPm_8BDV5CuRt_E5lMA-70" value="" style="edgeStyle=none;rounded=0;orthogonalLoop=1;jettySize=auto;html=1;" edge="1" parent="1" source="aRPm_8BDV5CuRt_E5lMA-43" target="aRPm_8BDV5CuRt_E5lMA-68">
          <mxGeometry relative="1" as="geometry" />
        </mxCell>
        <mxCell id="aRPm_8BDV5CuRt_E5lMA-43" value="35" style="ellipse;whiteSpace=wrap;html=1;aspect=fixed;" vertex="1" parent="1">
          <mxGeometry x="560" y="280" width="40" height="40" as="geometry" />
        </mxCell>
        <mxCell id="aRPm_8BDV5CuRt_E5lMA-51" value="" style="edgeStyle=none;rounded=0;orthogonalLoop=1;jettySize=auto;html=1;" edge="1" parent="1" source="aRPm_8BDV5CuRt_E5lMA-45">
          <mxGeometry relative="1" as="geometry">
            <mxPoint x="580" y="520" as="targetPoint" />
          </mxGeometry>
        </mxCell>
        <mxCell id="aRPm_8BDV5CuRt_E5lMA-59" value="" style="edgeStyle=none;rounded=0;orthogonalLoop=1;jettySize=auto;html=1;" edge="1" parent="1" source="aRPm_8BDV5CuRt_E5lMA-45" target="k-RHDvBSSKnSWE7sQ61J-215">
          <mxGeometry relative="1" as="geometry" />
        </mxCell>
        <mxCell id="aRPm_8BDV5CuRt_E5lMA-45" value="7" style="ellipse;whiteSpace=wrap;html=1;aspect=fixed;" vertex="1" parent="1">
          <mxGeometry x="560" y="440" width="40" height="40" as="geometry" />
        </mxCell>
        <mxCell id="aRPm_8BDV5CuRt_E5lMA-58" value="" style="edgeStyle=none;rounded=0;orthogonalLoop=1;jettySize=auto;html=1;" edge="1" parent="1" target="k-RHDvBSSKnSWE7sQ61J-215">
          <mxGeometry relative="1" as="geometry">
            <mxPoint x="598.1937600772651" y="531.6941530082049" as="sourcePoint" />
          </mxGeometry>
        </mxCell>
        <mxCell id="aRPm_8BDV5CuRt_E5lMA-46" value="8" style="ellipse;whiteSpace=wrap;html=1;aspect=fixed;" vertex="1" parent="1">
          <mxGeometry x="560" y="520" width="40" height="40" as="geometry" />
        </mxCell>
        <mxCell id="aRPm_8BDV5CuRt_E5lMA-69" value="" style="edgeStyle=none;rounded=0;orthogonalLoop=1;jettySize=auto;html=1;" edge="1" parent="1" source="aRPm_8BDV5CuRt_E5lMA-68" target="aRPm_8BDV5CuRt_E5lMA-45">
          <mxGeometry relative="1" as="geometry" />
        </mxCell>
        <mxCell id="aRPm_8BDV5CuRt_E5lMA-68" value="38" style="ellipse;whiteSpace=wrap;html=1;aspect=fixed;" vertex="1" parent="1">
          <mxGeometry x="560" y="360" width="40" height="40" as="geometry" />
        </mxCell>
      </root>
    </mxGraphModel>
  </diagram>
</mxfile>
